HIERARCHY
ROOT Hips
{
	OFFSET 0.000000 0.000000 0.000000
	CHANNELS 6 Xposition Yposition Zposition Xrotation Yrotation Zrotation
	JOINT LeftUpLeg_virtual
	{
		OFFSET 0.000000 0.000000 0.000000
		CHANNELS 3 Xrotation Yrotation Zrotation
		JOINT LeftUpLeg
		{
			OFFSET 11.394100 -6.187798 -0.413800
			CHANNELS 3 Xrotation Yrotation Zrotation
			JOINT LeftLeg
			{
				OFFSET 0.430247 -32.302673 3.732800
				CHANNELS 3 Xrotation Yrotation Zrotation
				JOINT LeftFoot
				{
					OFFSET -0.430247 -48.264931 -6.423300
					CHANNELS 3 Xrotation Yrotation Zrotation
					JOINT LeftToeBase
					{
						OFFSET 4.230900 -16.068199 23.438400
						CHANNELS 3 Xrotation Yrotation Zrotation
						JOINT LeftToe_End
						{
							OFFSET 4.510700 0.695400 19.974600
							CHANNELS 3 Xrotation Yrotation Zrotation
							End Site
							{
								OFFSET 0 0 0
							}
						}
					}
				}
			}
		}
	}
	JOINT RightUpLeg_virtual
	{
		OFFSET 0.000000 0.000000 0.000000
		CHANNELS 3 Xrotation Yrotation Zrotation
		JOINT RightUpLeg
		{
			OFFSET -11.333700 -6.187798 -0.413800
			CHANNELS 3 Xrotation Yrotation Zrotation
			JOINT RightLeg
			{
				OFFSET -0.430392 -32.302628 3.733000
				CHANNELS 3 Xrotation Yrotation Zrotation
				JOINT RightFoot
				{
					OFFSET 0.430392 -48.264973 -6.423500
					CHANNELS 3 Xrotation Yrotation Zrotation
					JOINT RightToeBase
					{
						OFFSET -4.230900 -16.068199 23.438400
						CHANNELS 3 Xrotation Yrotation Zrotation
						JOINT RightToe_End
						{
							OFFSET -4.510700 0.695400 19.974600
							CHANNELS 3 Xrotation Yrotation Zrotation
							End Site
							{
								OFFSET 0 0 0
							}
						}
					}
				}
			}
		}
	}
	JOINT Spine_virtual
	{
		OFFSET 0.000000 0.000000 0.000000
		CHANNELS 3 Xrotation Yrotation Zrotation
		JOINT Spine
		{
			OFFSET -0.002400 12.777504 0.315300
			CHANNELS 3 Xrotation Yrotation Zrotation
			JOINT Spine1
			{
				OFFSET -0.002067 5.816869 0.032633
				CHANNELS 3 Xrotation Yrotation Zrotation
				JOINT Spine1_split
				{
					OFFSET -0.002067 5.816869 0.032633
					CHANNELS 3 Xrotation Yrotation Zrotation
					JOINT Spine2
					{
						OFFSET -0.002067 5.816869 0.032633
						CHANNELS 3 Xrotation Yrotation Zrotation
						JOINT Neck_virtual
						{
							OFFSET 0.000000 0.000000 0.000000
							CHANNELS 3 Xrotation Yrotation Zrotation
							JOINT Neck
							{
								OFFSET -0.003700 21.199493 -0.826900
								CHANNELS 3 Xrotation Yrotation Zrotation
								JOINT Head
								{
									OFFSET 0.000000 20.442200 4.834800
									CHANNELS 3 Xrotation Yrotation Zrotation
									JOINT HeadTop_End
									{
										OFFSET 0.000000 34.668396 4.968400
										CHANNELS 3 Xrotation Yrotation Zrotation
										End Site
										{
											OFFSET 0 0 0
										}
									}
								}
							}
						}
						JOINT LeftShoulder_virtual
						{
							OFFSET 0.000000 0.000000 0.000000
							CHANNELS 3 Xrotation Yrotation Zrotation
							JOINT LeftShoulder
							{
								OFFSET 3.288150 8.794197 -1.372250
								CHANNELS 3 Xrotation Yrotation Zrotation
								JOINT LeftShoulder_split
								{
									OFFSET 3.288150 8.794197 -1.372250
									CHANNELS 3 Xrotation Yrotation Zrotation
									JOINT LeftArm
									{
										OFFSET 11.953299 -2.279007 -0.146200
										CHANNELS 3 Xrotation Yrotation Zrotation
										JOINT LeftForeArm
										{
											OFFSET 18.448900 0.000000 0.000000
											CHANNELS 3 Xrotation Yrotation Zrotation
											JOINT LeftHand
											{
												OFFSET 29.527798 0.000000 0.000000
												CHANNELS 3 Xrotation Yrotation Zrotation
												End Site
												{
													OFFSET 0 0 0
												}
											}
										}
									}
								}
							}
						}
						JOINT RightShoulder_virtual
						{
							OFFSET 0.000000 0.000000 0.000000
							CHANNELS 3 Xrotation Yrotation Zrotation
							JOINT RightShoulder
							{
								OFFSET -3.249400 8.794197 -1.372250
								CHANNELS 3 Xrotation Yrotation Zrotation
								JOINT RightShoulder_split
								{
									OFFSET -3.249400 8.794197 -1.372250
									CHANNELS 3 Xrotation Yrotation Zrotation
									JOINT RightArm
									{
										OFFSET -11.953299 -2.279007 -0.146200
										CHANNELS 3 Xrotation Yrotation Zrotation
										JOINT RightForeArm
										{
											OFFSET -18.448900 0.000000 0.000000
											CHANNELS 3 Xrotation Yrotation Zrotation
											JOINT RightHand
											{
												OFFSET -29.527802 0.000000 0.000000
												CHANNELS 3 Xrotation Yrotation Zrotation
												End Site
												{
													OFFSET 0 0 0
												}
											}
										}
									}
								}
							}
						}
					}
				}
			}
		}
	}
}
MOTION
Frames: 11
Frame Time: 0.03333333
13.827401 148.056000 -16.865105 0.000000 0.000000 0.000000 -89.655303 -10.367749 -3.256449 8.424129 28.329574 4.365469 -0.272976 -14.094570 -5.141363 12.901070 29.843661 -4.374971 10.926733 0.008351 8.833661 0.000000 0.000000 0.000000 -88.729239 -6.007472 0.576981 -3.409561 -18.491323 -8.644505 -6.116179 13.932974 -11.172818 23.395734 -26.477655 19.478514 4.226931 -6.188286 -48.359785 0.000000 0.000000 0.000000 -91.891466 -1.375698 3.522391 1.400005 -5.380766 -2.688425 -1.315946 -2.606984 -0.732333 0.020536 0.542003 -0.165358 0.000000 0.000000 0.000000 1.012493 0.770107 0.005392 -7.092916 -24.098530 -13.408160 7.847883 -54.827117 28.507558 0.000000 0.000000 0.000000 -0.263310 0.912096 -1.761937 3.797156 -4.880806 -11.068818 8.088187 -9.371936 1.083833 52.294305 -27.095584 -27.298251 -22.071078 -33.131479 -11.922479 0.000000 0.000000 0.000000 2.065120 -0.633245 -2.626595 -1.367322 -1.218180 7.157087 19.981893 7.180586 6.184107 -8.585824 -1.045148 72.191555 105.674330 78.057820 -97.759938 0.000000 0.000000 0.000000 
13.835548 148.055054 -16.866028 0.000000 0.000000 0.000000 -89.657817 -10.370339 -3.260819 8.425014 28.322996 4.364876 -0.272810 -14.104842 -5.141556 12.907181 29.835503 -4.381672 10.922555 0.008367 8.837706 0.000000 0.000000 0.000000 -88.732183 -6.003146 0.582869 -3.398873 -18.499648 -8.638267 -6.132408 13.936569 -11.174925 23.374178 -26.482696 19.464922 4.213226 -6.180861 -48.360806 0.000000 0.000000 0.000000 -91.893290 -1.395915 3.505273 1.403557 -5.385269 -2.691094 -1.318140 -2.598730 -0.730915 0.018819 0.544892 -0.167099 0.000000 0.000000 0.000000 1.012903 0.778364 0.003576 -7.085081 -24.102493 -13.396242 7.767787 -54.833964 28.466459 0.000000 0.000000 0.000000 -0.261562 0.917389 -1.759499 3.796994 -4.870546 -11.074756 8.072531 -9.390933 1.091606 52.298116 -27.055797 -27.283720 -22.066350 -33.131383 -11.926402 0.000000 0.000000 0.000000 2.067051 -0.624342 -2.624843 -1.374821 -1.226764 7.133355 19.965615 7.190013 6.220264 -8.583979 -1.009880 72.169596 105.591999 78.062287 -97.675305 0.000000 0.000000 0.000000 
13.845382 148.059143 -16.862877 0.000000 0.000000 0.000000 -89.660105 -10.376947 -3.268482 8.422509 28.321861 4.364856 -0.271705 -14.118810 -5.142760 12.914642 29.822580 -4.386507 10.918517 0.007921 8.841888 0.000000 0.000000 0.000000 -88.735775 -6.004348 0.583411 -3.395780 -18.515589 -8.629411 -6.150173 13.945203 -11.177739 23.353009 -26.487880 19.440563 4.201651 -6.175551 -48.382567 0.000000 0.000000 0.000000 -91.887232 -1.421442 3.483562 1.415460 -5.390753 -2.693900 -1.317419 -2.585403 -0.730029 0.017579 0.546063 -0.167899 0.000000 0.000000 0.000000 1.017041 0.791656 0.001703 -7.159285 -24.103772 -13.412162 7.557605 -54.817486 28.369177 0.000000 0.000000 0.000000 -0.258267 0.930334 -1.758386 3.798155 -4.837321 -11.080501 8.051561 -9.420515 1.100400 52.276950 -27.004662 -27.283956 -22.055828 -33.149982 -11.930966 0.000000 0.000000 0.000000 2.073222 -0.609231 -2.625000 -1.382247 -1.221053 7.094881 19.956515 7.213446 6.260761 -8.580508 -0.995404 72.168202 105.590749 78.069158 -97.684102 0.000000 0.000000 0.000000 
13.856275 148.066833 -16.858337 0.000000 0.000000 0.000000 -89.660481 -10.386094 -3.278178 8.416316 28.327494 4.366519 -0.269946 -14.132881 -5.144359 12.917128 29.807905 -4.385604 10.916141 0.007108 8.844800 0.000000 0.000000 0.000000 -88.738508 -6.011424 0.577784 -3.407925 -18.534932 -8.622329 -6.156738 13.964349 -11.179413 23.347233 -26.485699 19.414869 4.191472 -6.173492 -48.419150 0.000000 0.000000 0.000000 -91.874002 -1.449247 3.459374 1.435122 -5.398058 -2.697031 -1.313793 -2.568851 -0.728743 0.017763 0.545019 -0.167248 0.000000 0.000000 0.000000 1.025459 0.808451 0.000349 -7.308342 -24.103739 -13.448185 7.248445 -54.773882 28.232155 0.000000 0.000000 0.000000 -0.252991 0.948918 -1.757842 3.800272 -4.780860 -11.084285 8.034061 -9.460097 1.114885 52.237444 -26.949208 -27.302150 -22.035604 -33.181834 -11.932725 0.000000 0.000000 0.000000 2.083404 -0.589909 -2.626590 -1.389094 -1.203346 7.047421 19.956525 7.241954 6.304623 -8.575468 -1.005056 72.189492 105.661469 78.076596 -97.776221 0.000000 0.000000 0.000000 
13.867303 148.076233 -16.853931 0.000000 0.000000 0.000000 -89.659880 -10.397420 -3.291482 8.405011 28.340670 4.371576 -0.267277 -14.147560 -5.146429 12.913620 29.791390 -4.381482 10.913115 0.006126 8.847445 0.000000 0.000000 0.000000 -88.737613 -6.021925 0.566933 -3.435615 -18.553987 -8.620174 -6.145768 14.000268 -11.178167 23.363931 -26.469918 19.393892 4.179000 -6.174133 -48.464635 0.000000 0.000000 0.000000 -91.855178 -1.477185 3.432791 1.461802 -5.408084 -2.700448 -1.307910 -2.550221 -0.726585 0.018932 0.544037 -0.165390 0.000000 0.000000 0.000000 1.037372 0.827387 0.000062 -7.518579 -24.105356 -13.492014 6.871317 -54.693956 28.066875 0.000000 0.000000 0.000000 -0.245055 0.970843 -1.757034 3.803221 -4.702625 -11.084939 8.024045 -9.509019 1.130226 52.187126 -26.896832 -27.334996 -22.000295 -33.217539 -11.927764 0.000000 0.000000 0.000000 2.094918 -0.568661 -2.628723 -1.395441 -1.177041 6.997515 19.963350 7.261160 6.357044 -8.570176 -1.035064 72.232338 105.783491 78.082764 -97.928486 0.000000 0.000000 0.000000 
13.878226 148.085205 -16.850300 0.000000 0.000000 0.000000 -89.657837 -10.409585 -3.309304 8.389196 28.360819 4.380357 -0.262073 -14.164099 -5.149129 12.905295 29.772900 -4.375943 10.906721 0.004877 8.852060 0.000000 0.000000 0.000000 -88.734771 -6.033655 0.550115 -3.474009 -18.571961 -8.621798 -6.123469 14.049151 -11.174599 23.394344 -26.444003 19.370866 4.163317 -6.176707 -48.514895 0.000000 0.000000 0.000000 -91.833860 -1.502835 3.403681 1.493814 -5.421890 -2.703869 -1.301398 -2.530851 -0.723736 0.020832 0.542747 -0.163443 0.000000 0.000000 0.000000 1.051476 0.846558 0.000750 -7.768928 -24.109653 -13.532171 6.466301 -54.568714 27.894115 0.000000 0.000000 0.000000 -0.234665 0.993467 -1.755251 3.806750 -4.606441 -11.080580 8.022663 -9.567294 1.142577 52.128246 -26.854887 -27.381352 -21.946537 -33.245775 -11.912869 0.000000 0.000000 0.000000 2.105128 -0.548503 -2.630895 -1.401579 -1.146113 6.951217 19.968145 7.265103 6.417063 -8.566845 -1.077224 72.295968 105.930886 78.085578 -98.112218 0.000000 0.000000 0.000000 
13.888820 148.093506 -16.846874 0.000000 0.000000 0.000000 -89.653978 -10.421192 -3.331542 8.369550 28.387374 4.392135 -0.252494 -14.182674 -5.152416 12.893086 29.753769 -4.369775 10.898555 0.003648 8.858790 0.000000 0.000000 0.000000 -88.732470 -6.045694 0.526677 -3.514831 -18.590148 -8.624949 -6.100322 14.103160 -11.169483 23.424216 -26.414630 19.337408 4.144704 -6.180301 -48.567143 0.000000 0.000000 0.000000 -91.812195 -1.524686 3.371144 1.528428 -5.440055 -2.706769 -1.295712 -2.512754 -0.720905 0.021882 0.540330 -0.162547 0.000000 0.000000 0.000000 1.067179 0.863957 0.001557 -8.036403 -24.116770 -13.561548 6.072346 -54.403314 27.732651 0.000000 0.000000 0.000000 -0.222828 1.014824 -1.751966 3.810395 -4.495663 -11.070098 8.026256 -9.627996 1.154201 52.059012 -26.824701 -27.438383 -21.875375 -33.261129 -11.887989 0.000000 0.000000 0.000000 2.112098 -0.531831 -2.633113 -1.408044 -1.114073 6.910466 19.961037 7.261300 6.475453 -8.569334 -1.124552 72.375102 106.076396 78.084184 -98.296975 0.000000 0.000000 0.000000 
13.898662 148.101868 -16.845459 0.000000 0.000000 0.000000 -89.649470 -10.430163 -3.356616 8.346419 28.418730 4.406533 -0.238445 -14.202688 -5.156095 12.879925 29.735126 -4.365626 10.890979 0.003114 8.866169 0.000000 0.000000 0.000000 -88.730591 -6.056135 0.498618 -3.550445 -18.611538 -8.627086 -6.085336 14.156767 -11.163318 23.441855 -26.385530 19.291396 4.125999 -6.184325 -48.619042 0.000000 0.000000 0.000000 -91.790079 -1.540190 3.336761 1.563091 -5.462994 -2.708033 -1.292829 -2.497303 -0.719039 0.021954 0.537224 -0.161842 0.000000 0.000000 0.000000 1.083168 0.878371 0.002262 -8.298591 -24.127015 -13.576913 5.715235 -54.199125 27.590606 0.000000 0.000000 0.000000 -0.210990 1.033373 -1.747416 3.813627 -4.373993 -11.053134 8.027781 -9.678398 1.164643 51.978078 -26.804024 -27.502079 -21.791403 -33.264555 -11.856592 0.000000 0.000000 0.000000 2.115797 -0.520575 -2.635769 -1.415094 -1.086073 6.874868 19.943147 7.259093 6.523665 -8.580896 -1.169107 72.467576 106.190413 78.078645 -98.449548 0.000000 0.000000 0.000000 
13.908234 148.110901 -16.845516 0.000000 0.000000 0.000000 -89.643029 -10.435213 -3.382743 8.320456 28.452278 4.422477 -0.220554 -14.221670 -5.160054 12.868300 29.717835 -4.364333 10.884507 0.003436 8.873364 0.000000 0.000000 0.000000 -88.728515 -6.063461 0.468959 -3.578602 -18.637891 -8.627744 -6.081812 14.208087 -11.156002 23.446204 -26.356085 19.240131 4.103955 -6.185336 -48.671464 0.000000 0.000000 0.000000 -91.768352 -1.548779 3.302425 1.594769 -5.490078 -2.707554 -1.293655 -2.486084 -0.718924 0.022036 0.534399 -0.161329 0.000000 0.000000 0.000000 1.097364 0.888360 0.002312 -8.533891 -24.139750 -13.579158 5.414261 -53.970393 27.477989 0.000000 0.000000 0.000000 -0.200852 1.047640 -1.743108 3.816098 -4.247904 -11.030798 8.029195 -9.713746 1.176231 51.892376 -26.791748 -27.569155 -21.702897 -33.260364 -11.823219 0.000000 0.000000 0.000000 2.117539 -0.515828 -2.640053 -1.422622 -1.066598 6.843395 19.918478 7.265942 6.558822 -8.601427 -1.207499 72.569005 106.249378 78.069424 -98.541987 0.000000 0.000000 0.000000 
13.918285 148.121002 -16.846710 0.000000 0.000000 0.000000 -89.634178 -10.435071 -3.405682 8.291927 28.486320 4.438575 -0.199769 -14.238667 -5.164232 12.860755 29.701450 -4.366495 10.875503 0.004397 8.881455 0.000000 0.000000 0.000000 -88.724868 -6.066130 0.442136 -3.596837 -18.667682 -8.627255 -6.089264 14.258966 -11.147684 23.445582 -26.324550 19.193451 4.076595 -6.181099 -48.724579 0.000000 0.000000 0.000000 -91.746837 -1.549490 3.272692 1.620666 -5.519799 -2.706102 -1.297669 -2.480148 -0.721060 0.021422 0.532348 -0.160458 0.000000 0.000000 0.000000 1.107679 0.892972 0.001149 -8.724851 -24.156190 -13.571772 5.185899 -53.735417 27.405434 0.000000 0.000000 0.000000 -0.192332 1.056806 -1.740094 3.818096 -4.123342 -11.006485 8.032263 -9.735695 1.186484 51.812780 -26.786376 -27.635704 -21.616072 -33.252390 -11.791567 0.000000 0.000000 0.000000 2.117465 -0.517289 -2.646551 -1.429786 -1.057888 6.814612 19.901559 7.279140 6.585421 -8.630273 -1.238863 72.671362 106.245143 78.057731 -98.562963 0.000000 0.000000 0.000000 
13.928478 148.132172 -16.848637 0.000000 0.000000 0.000000 -89.623167 -10.429203 -3.422471 8.262149 28.517981 4.453599 -0.178623 -14.252785 -5.168707 12.858451 29.686092 -4.370878 10.863479 0.005722 8.890797 0.000000 0.000000 0.000000 -88.718283 -6.063184 0.421233 -3.604677 -18.698823 -8.625386 -6.104476 14.308244 -11.139500 23.442478 -26.294000 19.152998 4.051279 -6.174705 -48.774685 0.000000 0.000000 0.000000 -91.726920 -1.542195 3.251085 1.639508 -5.550212 -2.704274 -1.304035 -2.479962 -0.725571 0.020843 0.531101 -0.159804 0.000000 0.000000 0.000000 1.113891 0.891527 -0.001116 -8.856595 -24.175456 -13.557177 5.043157 -53.510041 27.383721 0.000000 0.000000 0.000000 -0.186100 1.060509 -1.738989 3.819431 -4.007533 -10.982218 8.039115 -9.749435 1.188503 51.743508 -26.788494 -27.702194 -21.537193 -33.241981 -11.763654 0.000000 0.000000 0.000000 2.116286 -0.524847 -2.655149 -1.436136 -1.060654 6.786971 19.891761 7.291420 6.601132 -8.662708 -1.261358 72.768767 106.190508 78.044255 -98.522460 0.000000 0.000000 0.000000 
